<?xml version="1.0" encoding="UTF-8"?>
<svg id="Layer_1" xmlns="http://www.w3.org/2000/svg" version="1.1" viewBox="0 0 2000 2000">
  <!-- Generator: Adobe Illustrator 29.0.1, SVG Export Plug-In . SVG Version: 2.1.0 Build 192)  -->
  <defs>
    <style>
      .st0 {
        fill: #fff;
      }
    </style>
  </defs>
  <g>
    <path d="M912.26,1719.03c-18.9,4.79-39.09-.91-52.67-14.87L146.05,970.98c-21.03-21.61-20.56-56.31,1.05-77.34l504.74-491.21c6.88-6.69,15.41-11.47,24.66-13.82,18.9-4.79,39.09.91,52.67,14.87l713.53,733.18c21.03,21.61,20.56,56.31-1.05,77.34l-504.74,491.21c-6.88,6.69-15.41,11.47-24.66,13.82Z"/>
    <path class="st0" d="M678.57,396.75c15.51-3.93,32.63.29,44.6,12.59l713.53,733.18c17.83,18.32,17.43,47.63-.89,65.47l-504.74,491.21c-6.03,5.87-13.26,9.77-20.87,11.7-15.51,3.93-32.63-.29-44.6-12.59L152.07,965.13c-17.83-18.32-17.43-47.63.89-65.47l504.74-491.21c6.03-5.87,13.26-9.77,20.87-11.7M674.45,380.47h0c-10.68,2.71-20.52,8.22-28.46,15.94l-504.74,491.21c-12.08,11.75-18.85,27.5-19.08,44.35-.23,16.85,6.12,32.78,17.87,44.86l713.53,733.18c15.67,16.1,38.95,22.68,60.75,17.15,10.68-2.71,20.52-8.22,28.46-15.94l504.74-491.21c12.08-11.75,18.85-27.5,19.08-44.35.23-16.85-6.12-32.78-17.87-44.86L735.2,397.63c-15.67-16.1-38.95-22.68-60.75-17.15h0Z"/>
  </g>
  <g>
    <path d="M913.12,1626.86c-19.5,0-37.67-10.48-47.41-27.35l-511.54-886.01c-15.08-26.12-6.1-59.63,20.02-74.71l609.95-352.16c8.31-4.8,17.75-7.34,27.3-7.34,19.5,0,37.67,10.48,47.41,27.35l511.54,886.01c15.08,26.12,6.1,59.63-20.02,74.71l-609.95,352.16c-8.31,4.8-17.75,7.34-27.3,7.34Z"/>
    <path class="st0" d="M1011.45,287.69c16,0,31.56,8.3,40.14,23.16l511.54,886.01c12.78,22.14,5.2,50.46-16.95,63.24l-609.95,352.16c-7.29,4.21-15.25,6.21-23.11,6.21-16,0-31.56-8.3-40.14-23.16l-511.54-886.01c-12.78-22.14-5.2-50.46,16.95-63.24l609.95-352.16c7.29-4.21,15.25-6.21,23.11-6.21M1011.45,270.9h0c-11.02,0-21.91,2.93-31.5,8.46l-609.95,352.16c-14.59,8.43-25.03,22.03-29.39,38.31-4.36,16.28-2.12,33.28,6.3,47.87l511.54,886.01c11.24,19.46,32.19,31.55,54.68,31.55,11.02,0,21.91-2.93,31.5-8.46l609.95-352.16c14.59-8.43,25.03-22.03,29.39-38.31,4.36-16.28,2.12-33.28-6.3-47.87l-511.54-886.01c-11.24-19.46-32.19-31.55-54.68-31.55h0Z"/>
  </g>
  <g>
    <path d="M947.52,365h704.31c30.19,0,54.69,24.51,54.69,54.69v1023.08c0,30.18-24.51,54.69-54.69,54.69h-704.31c-30.19,0-54.69-24.51-54.69-54.69V419.69c0-30.18,24.51-54.69,54.69-54.69Z"/>
    <path class="st0" d="M1651.83,373.39c25.57,0,46.3,20.73,46.3,46.3v1023.08c0,25.57-20.73,46.3-46.3,46.3h-704.31c-25.57,0-46.3-20.73-46.3-46.3V419.69c0-25.57,20.73-46.3,46.3-46.3h704.31M1651.83,356.6h-704.31c-34.79,0-63.09,28.3-63.09,63.09v1023.08c0,34.79,28.3,63.09,63.09,63.09h704.31c34.79,0,63.09-28.3,63.09-63.09V419.69c0-34.79-28.3-63.09-63.09-63.09h0Z"/>
  </g>
  <g>
    <path class="st0" d="M1250.23,507.33c16.99,17.39,25.49,41.51,25.49,72.37v36.92l-59.77,2.93v-33.4c0-31.64-11.72-47.46-35.16-47.46-11.33,0-20.03,3.52-26.08,10.55-6.06,7.03-9.08,17.39-9.08,31.06v223.84c0,13.68,3.02,24.02,9.08,31.06,6.05,7.03,14.74,10.55,26.08,10.55,23.44,0,35.16-15.82,35.16-47.46v-45.71l59.77,2.93v49.22c0,30.86-8.5,54.99-25.49,72.37-16.99,17.39-40.73,26.08-71.2,26.08s-53.53-8.59-70.32-25.78c-16.8-17.19-25.2-41.4-25.2-72.66v-225.02c0-31.25,8.4-55.47,25.2-72.66,16.79-17.18,40.23-25.78,70.32-25.78s54.2,8.7,71.2,26.08Z"/>
    <path class="st0" d="M1470.32,508.68c16.6,18.29,24.91,44.7,24.91,79.26v7.84c0,23.71-3.63,42.6-10.88,56.65-7.26,14.07-18.71,23.91-34.36,29.53v1.21c18.7,6.03,32.35,16.98,40.94,32.85,8.59,15.88,12.88,37.88,12.88,66v14.47c0,34.56-8.59,60.98-25.77,79.26-17.18,18.29-42.18,27.42-75.01,27.42h-89.32v-421.9h84.74c31.29,0,55.25,9.14,71.86,27.42ZM1374.41,540.32v115.12h18.9c14.5,0,25-4.12,31.49-12.36,6.49-8.23,9.73-21.19,9.73-38.88v-13.86c0-17.27-3.06-29.93-9.16-37.97-6.11-8.03-15.84-12.05-29.2-12.05h-21.76ZM1374.41,714.51v129.58h26.34c14.5,0,25.2-4.22,32.07-12.66,6.87-8.44,10.31-21.49,10.31-39.18v-23.51c0-18.88-3.53-32.64-10.59-41.29-7.07-8.64-18.61-12.96-34.64-12.96h-23.48Z"/>
    <path class="st0" d="M1275.72,1316.23h-58.38v-167.97h-69.39v167.97h-58.38v-385.51h58.38v162.46h69.39v-162.46h58.38v385.51Z"/>
    <path class="st0" d="M1477,956.89c16.7,17.44,25.06,41.22,25.06,71.32v201.56c0,23.87-5.33,43.88-15.97,60.03,5.87,6.25,15.78,9.36,29.74,9.36l-5.51,53.97c-30.11,0-51.59-10.65-64.43-31.94-11.38,4.04-24.05,6.06-38,6.06-29.38,0-52.41-8.72-69.12-26.16-16.71-17.43-25.06-41.21-25.06-71.32v-201.56c0-30.1,8.35-53.88,25.06-71.32,16.7-17.43,39.74-26.16,69.12-26.16s52.41,8.73,69.12,26.16ZM1381.18,995.99c-6.06,7.53-9.09,18.45-9.09,32.77v200.46c0,14.32,3.03,25.25,9.09,32.77,6.06,7.53,14.96,11.29,26.71,11.29s20.65-3.76,26.71-11.29c6.06-7.52,9.09-18.45,9.09-32.77v-200.46c0-14.32-3.03-25.24-9.09-32.77-6.06-7.52-14.96-11.29-26.71-11.29s-20.65,3.77-26.71,11.29Z"/>
  </g>
  <rect x="1215.58" y="832.5" width="168.19" height="168.19" rx="14.12" ry="14.12" transform="translate(-267.46 1187.47) rotate(-45)"/>
</svg>