<?xml version="1.0" encoding="UTF-8" standalone="no"?><!DOCTYPE svg PUBLIC "-//W3C//DTD SVG 1.1//EN" "http://www.w3.org/Graphics/SVG/1.1/DTD/svg11.dtd"><svg width="100%" height="100%" viewBox="0 0 718 901" version="1.1" xmlns="http://www.w3.org/2000/svg" xmlns:xlink="http://www.w3.org/1999/xlink" xml:space="preserve" xmlns:serif="http://www.serif.com/" style="fill-rule:evenodd;clip-rule:evenodd;stroke-linecap:round;stroke-linejoin:round;stroke-miterlimit:1.5;"><g><g><g><g><path d="M713.91,364.403l1.097,-305.681l-210.374,-56.639l-500.41,42.128l221.709,64.857l489.075,-50.346l-489.075,50.346l0.359,321.938l-2.886,-2.015l0.827,469.56l484.982,-89.754l-2.575,-443.189l7.271,-1.205Z" style="fill:#5c5470;stroke:#fff;stroke-width:4.17px;"/><path d="M4.278,45.023l-2.195,774.802l221.686,79.017l485.075,-89.991l-2.01,-443.063l-480.87,65.538l-222.14,-226.095l0.454,-160.208Z" style="fill:#5c5470;stroke:#fff;stroke-width:4.17px;"/><path d="M4.623,44.422l0.128,163.076l221.807,222.696l0.201,-320.569l-222.136,-65.203Z" style="fill:#5c5470;stroke:#fff;stroke-width:4.17px;"/></g><path d="M226.224,371.067l0.067,59.939l65.512,-7.927l-65.579,-52.012Z" style="fill:#fff;"/><path d="M288.393,102.225l-61.706,6.842l-0.616,63.745l62.322,-70.587Z" style="fill:#fff;"/><path d="M52.994,57.318l-48.354,-12.538l-1.079,63.976l49.433,-51.438Z" style="fill:#fff;"/><path d="M26.966,229.328l-22.901,-20.456l0.806,-61.384l22.095,81.84Z" style="fill:#fff;"/><path d="M713.817,308.881l-0.439,54.342l-61.899,9.909l62.338,-64.251Z" style="fill:#fff;"/><path d="M546.604,14.434l-41.341,-11.547l-39.189,3.736l80.53,7.811Z" style="fill:#fff;"/><path d="M45.73,41.173l-38.22,2.31l44.406,14.955l-6.186,-17.265Z" style="fill:#fff;"/><path d="M2.751,790.55l38.292,43.357l-38.299,-12.717l0.007,-30.64Z" style="fill:#fff;"/><path d="M192.546,886.127l32.681,-25.316l39.586,29.459l-40.046,7.825l-32.221,-11.968" style="fill:#fff;"/><path d="M646.573,66.219l68.556,-6.63l-0.294,60.905l-68.262,-54.275Z" style="fill:#fff;"/><path d="M708.545,773.358l-40.457,42.704l41.58,-7.866l-1.123,-34.838Z" style="fill:#fff;"/></g></g><path d="M225.848,432.081l-0.615,463.961" style="fill:none;stroke:#fff;stroke-width:4.17px;"/></g></svg>